<svg width="131" height="39" viewBox="0 0 131 39" fill="none" xmlns="http://www.w3.org/2000/svg">
<rect x="1" y="1" width="129" height="37" rx="14" stroke="#BF512E" stroke-width="2"/>
<path d="M20.756 19.52C20.756 18.74 20.888 17.978 21.152 17.234C21.428 16.478 21.824 15.794 22.34 15.182C22.856 14.558 23.492 14.066 24.248 13.706C25.004 13.334 25.862 13.148 26.822 13.148C27.962 13.148 28.934 13.412 29.738 13.94C30.554 14.456 31.154 15.122 31.538 15.938L30.548 16.55C30.272 15.986 29.924 15.542 29.504 15.218C29.084 14.882 28.634 14.642 28.154 14.498C27.686 14.354 27.218 14.282 26.75 14.282C25.982 14.282 25.304 14.438 24.716 14.75C24.128 15.05 23.63 15.458 23.222 15.974C22.826 16.478 22.526 17.048 22.322 17.684C22.118 18.308 22.016 18.944 22.016 19.592C22.016 20.3 22.136 20.978 22.376 21.626C22.616 22.274 22.952 22.85 23.384 23.354C23.816 23.846 24.32 24.242 24.896 24.542C25.484 24.83 26.12 24.974 26.804 24.974C27.284 24.974 27.776 24.89 28.28 24.722C28.784 24.554 29.252 24.296 29.684 23.948C30.128 23.6 30.482 23.15 30.746 22.598L31.79 23.138C31.526 23.774 31.118 24.314 30.566 24.758C30.014 25.202 29.396 25.538 28.712 25.766C28.04 25.994 27.38 26.108 26.732 26.108C25.856 26.108 25.052 25.922 24.32 25.55C23.588 25.166 22.952 24.662 22.412 24.038C21.884 23.402 21.476 22.694 21.188 21.914C20.9 21.122 20.756 20.324 20.756 19.52ZM37.6858 26.18C37.0138 26.18 36.3898 26.054 35.8138 25.802C35.2498 25.538 34.7578 25.184 34.3378 24.74C33.9298 24.284 33.6118 23.768 33.3838 23.192C33.1558 22.604 33.0418 21.986 33.0418 21.338C33.0418 20.666 33.1558 20.042 33.3838 19.466C33.6118 18.878 33.9358 18.362 34.3558 17.918C34.7758 17.462 35.2678 17.108 35.8318 16.856C36.4078 16.592 37.0318 16.46 37.7038 16.46C38.3758 16.46 38.9938 16.592 39.5578 16.856C40.1218 17.108 40.6138 17.462 41.0338 17.918C41.4538 18.362 41.7778 18.878 42.0058 19.466C42.2338 20.042 42.3478 20.666 42.3478 21.338C42.3478 21.986 42.2338 22.604 42.0058 23.192C41.7778 23.768 41.4538 24.284 41.0338 24.74C40.6258 25.184 40.1338 25.538 39.5578 25.802C38.9938 26.054 38.3698 26.18 37.6858 26.18ZM34.2838 21.356C34.2838 22.052 34.4338 22.688 34.7338 23.264C35.0458 23.828 35.4598 24.278 35.9758 24.614C36.4918 24.938 37.0618 25.1 37.6858 25.1C38.3098 25.1 38.8798 24.932 39.3958 24.596C39.9118 24.26 40.3258 23.804 40.6378 23.228C40.9498 22.64 41.1058 22.004 41.1058 21.32C41.1058 20.624 40.9498 19.988 40.6378 19.412C40.3258 18.836 39.9118 18.38 39.3958 18.044C38.8798 17.708 38.3098 17.54 37.6858 17.54C37.0618 17.54 36.4918 17.714 35.9758 18.062C35.4718 18.41 35.0638 18.872 34.7518 19.448C34.4398 20.012 34.2838 20.648 34.2838 21.356ZM52.2789 26H51.0549V20.762C51.0549 19.658 50.8929 18.854 50.5689 18.35C50.2449 17.834 49.7349 17.576 49.0389 17.576C48.5589 17.576 48.0849 17.696 47.6169 17.936C47.1489 18.164 46.7349 18.482 46.3749 18.89C46.0269 19.286 45.7749 19.742 45.6189 20.258V26H44.3949V16.622H45.5109V18.746C45.7629 18.29 46.0929 17.894 46.5009 17.558C46.9089 17.21 47.3709 16.94 47.8869 16.748C48.4029 16.556 48.9369 16.46 49.4889 16.46C50.0049 16.46 50.4429 16.556 50.8029 16.748C51.1629 16.94 51.4509 17.216 51.6669 17.576C51.8829 17.924 52.0389 18.35 52.1349 18.854C52.2309 19.346 52.2789 19.898 52.2789 20.51V26ZM59.3012 25.55C59.2052 25.586 59.0552 25.652 58.8512 25.748C58.6472 25.844 58.4012 25.928 58.1132 26C57.8252 26.072 57.5132 26.108 57.1772 26.108C56.8292 26.108 56.4992 26.042 56.1872 25.91C55.8872 25.778 55.6472 25.58 55.4672 25.316C55.2872 25.04 55.1972 24.704 55.1972 24.308V17.594H53.9012V16.622H55.1972V13.454H56.4212V16.622H58.5812V17.594H56.4212V23.966C56.4452 24.302 56.5652 24.554 56.7812 24.722C57.0092 24.89 57.2672 24.974 57.5552 24.974C57.8912 24.974 58.1972 24.92 58.4732 24.812C58.7492 24.692 58.9172 24.608 58.9772 24.56L59.3012 25.55ZM60.0745 23.3C60.0745 22.712 60.2425 22.208 60.5785 21.788C60.9145 21.356 61.3765 21.026 61.9645 20.798C62.5645 20.558 63.2545 20.438 64.0345 20.438C64.4905 20.438 64.9645 20.474 65.4565 20.546C65.9485 20.618 66.3865 20.726 66.7705 20.87V20.078C66.7705 19.286 66.5365 18.656 66.0685 18.188C65.6005 17.72 64.9525 17.486 64.1245 17.486C63.6205 17.486 63.1225 17.582 62.6305 17.774C62.1505 17.954 61.6465 18.224 61.1185 18.584L60.6505 17.72C61.2625 17.3 61.8625 16.988 62.4505 16.784C63.0385 16.568 63.6385 16.46 64.2505 16.46C65.4025 16.46 66.3145 16.79 66.9865 17.45C67.6585 18.11 67.9945 19.022 67.9945 20.186V24.524C67.9945 24.692 68.0305 24.818 68.1025 24.902C68.1745 24.974 68.2885 25.016 68.4445 25.028V26C68.3125 26.012 68.1985 26.024 68.1025 26.036C68.0065 26.048 67.9345 26.048 67.8865 26.036C67.5865 26.024 67.3585 25.928 67.2025 25.748C67.0465 25.568 66.9625 25.376 66.9505 25.172L66.9325 24.488C66.5125 25.028 65.9665 25.448 65.2945 25.748C64.6225 26.036 63.9385 26.18 63.2425 26.18C62.6425 26.18 62.0965 26.054 61.6045 25.802C61.1245 25.538 60.7465 25.19 60.4705 24.758C60.2065 24.314 60.0745 23.828 60.0745 23.3ZM66.3565 24.02C66.4885 23.852 66.5905 23.69 66.6625 23.534C66.7345 23.378 66.7705 23.24 66.7705 23.12V21.752C66.3625 21.596 65.9365 21.476 65.4925 21.392C65.0605 21.308 64.6225 21.266 64.1785 21.266C63.3025 21.266 62.5945 21.44 62.0545 21.788C61.5145 22.136 61.2445 22.61 61.2445 23.21C61.2445 23.558 61.3345 23.888 61.5145 24.2C61.6945 24.5 61.9585 24.752 62.3065 24.956C62.6545 25.148 63.0625 25.244 63.5305 25.244C64.1185 25.244 64.6645 25.13 65.1685 24.902C65.6845 24.674 66.0805 24.38 66.3565 24.02ZM74.7071 26.18C74.0231 26.18 73.3931 26.054 72.8171 25.802C72.2531 25.538 71.7551 25.178 71.3231 24.722C70.9031 24.266 70.5731 23.744 70.3331 23.156C70.1051 22.568 69.9911 21.944 69.9911 21.284C69.9911 20.396 70.1891 19.586 70.5851 18.854C70.9811 18.122 71.5331 17.54 72.2411 17.108C72.9491 16.676 73.7651 16.46 74.6891 16.46C75.5651 16.46 76.3391 16.664 77.0111 17.072C77.6831 17.468 78.1811 18.008 78.5051 18.692L77.3171 19.07C77.0531 18.59 76.6811 18.218 76.2011 17.954C75.7331 17.678 75.2111 17.54 74.6351 17.54C74.0111 17.54 73.4411 17.702 72.9251 18.026C72.4091 18.35 71.9951 18.794 71.6831 19.358C71.3831 19.922 71.2331 20.564 71.2331 21.284C71.2331 21.992 71.3891 22.634 71.7011 23.21C72.0131 23.786 72.4271 24.248 72.9431 24.596C73.4591 24.932 74.0291 25.1 74.6531 25.1C75.0611 25.1 75.4511 25.028 75.8231 24.884C76.2071 24.74 76.5371 24.548 76.8131 24.308C77.1011 24.056 77.2931 23.786 77.3891 23.498L78.5951 23.858C78.4271 24.302 78.1451 24.704 77.7491 25.064C77.3651 25.412 76.9091 25.688 76.3811 25.892C75.8651 26.084 75.3071 26.18 74.7071 26.18ZM85.018 25.55C84.922 25.586 84.772 25.652 84.568 25.748C84.364 25.844 84.118 25.928 83.83 26C83.542 26.072 83.23 26.108 82.894 26.108C82.546 26.108 82.216 26.042 81.904 25.91C81.604 25.778 81.364 25.58 81.184 25.316C81.004 25.04 80.914 24.704 80.914 24.308V17.594H79.618V16.622H80.914V13.454H82.138V16.622H84.298V17.594H82.138V23.966C82.162 24.302 82.282 24.554 82.498 24.722C82.726 24.89 82.984 24.974 83.272 24.974C83.608 24.974 83.914 24.92 84.19 24.812C84.466 24.692 84.634 24.608 84.694 24.56L85.018 25.55ZM91.0452 22.13V16.622H92.2692V21.914C92.2692 22.982 92.4492 23.78 92.8092 24.308C93.1812 24.836 93.7272 25.1 94.4472 25.1C94.9272 25.1 95.3892 24.998 95.8332 24.794C96.2892 24.578 96.6912 24.278 97.0392 23.894C97.3872 23.498 97.6512 23.042 97.8312 22.526V16.622H99.0552V24.524C99.0552 24.692 99.0912 24.818 99.1632 24.902C99.2352 24.974 99.3432 25.016 99.4872 25.028V26C99.3432 26.012 99.2292 26.018 99.1452 26.018C99.0612 26.03 98.9832 26.036 98.9112 26.036C98.6712 26.012 98.4612 25.916 98.2812 25.748C98.1132 25.58 98.0232 25.376 98.0112 25.136L97.9752 23.876C97.5672 24.596 97.0092 25.16 96.3012 25.568C95.6052 25.976 94.8492 26.18 94.0332 26.18C93.0492 26.18 92.3052 25.838 91.8012 25.154C91.2972 24.47 91.0452 23.462 91.0452 22.13ZM104.901 26.18C104.133 26.18 103.419 26.054 102.759 25.802C102.099 25.55 101.529 25.166 101.049 24.65L101.553 23.786C102.081 24.278 102.609 24.638 103.137 24.866C103.677 25.082 104.247 25.19 104.847 25.19C105.579 25.19 106.173 25.046 106.629 24.758C107.085 24.458 107.313 24.032 107.313 23.48C107.313 23.108 107.199 22.826 106.971 22.634C106.755 22.43 106.437 22.268 106.017 22.148C105.609 22.016 105.117 21.878 104.541 21.734C103.893 21.554 103.347 21.368 102.903 21.176C102.471 20.972 102.141 20.72 101.913 20.42C101.697 20.108 101.589 19.706 101.589 19.214C101.589 18.602 101.739 18.098 102.039 17.702C102.351 17.294 102.771 16.988 103.299 16.784C103.839 16.568 104.439 16.46 105.099 16.46C105.819 16.46 106.455 16.574 107.007 16.802C107.559 17.03 108.009 17.348 108.357 17.756L107.763 18.584C107.427 18.2 107.025 17.918 106.557 17.738C106.101 17.546 105.591 17.45 105.027 17.45C104.643 17.45 104.277 17.504 103.929 17.612C103.581 17.708 103.293 17.876 103.065 18.116C102.849 18.344 102.741 18.662 102.741 19.07C102.741 19.406 102.825 19.67 102.993 19.862C103.161 20.042 103.413 20.198 103.749 20.33C104.085 20.45 104.499 20.582 104.991 20.726C105.699 20.918 106.317 21.116 106.845 21.32C107.373 21.512 107.781 21.764 108.069 22.076C108.357 22.388 108.501 22.826 108.501 23.39C108.501 24.266 108.171 24.95 107.511 25.442C106.851 25.934 105.981 26.18 104.901 26.18Z" fill="white"/>
</svg>
