<svg width="17" height="20" viewBox="0 0 17 20" fill="none" xmlns="http://www.w3.org/2000/svg">
<path d="M16.2581 9.22368C15.8099 8.2716 15.1583 7.41706 14.3441 6.71353L13.6723 6.13175C13.6494 6.11254 13.622 6.0989 13.5923 6.09204C13.5626 6.08518 13.5316 6.08531 13.5019 6.09241C13.4723 6.09951 13.445 6.11336 13.4223 6.13276C13.3997 6.15216 13.3824 6.1765 13.3721 6.20365L13.072 7.0164C12.8849 7.52628 12.5409 8.04705 12.0538 8.5591C12.0214 8.59179 11.9845 8.6005 11.9591 8.60268C11.9337 8.60486 11.8945 8.6005 11.8598 8.57C11.8275 8.54385 11.8113 8.50463 11.8136 8.46541C11.8991 7.15368 11.4835 5.67417 10.5738 4.06392C9.82113 2.72604 8.77523 1.68232 7.46843 0.954552L6.51489 0.425066C6.39021 0.355339 6.2309 0.446855 6.23783 0.584129L6.28862 1.63003C6.32326 2.34472 6.23552 2.97662 6.02773 3.50175C5.77376 4.14454 5.40896 4.74157 4.94258 5.2776C4.61801 5.65012 4.25014 5.98706 3.84588 6.2821C2.87227 6.98844 2.08059 7.89351 1.53013 8.92953C0.981032 9.97458 0.695006 11.1252 0.694336 12.2917C0.694336 13.3201 0.909057 14.3159 1.33388 15.255C1.74408 16.1592 2.33605 16.9798 3.07705 17.6715C3.82511 18.3688 4.69322 18.9179 5.66062 19.2992C6.66265 19.6957 7.72471 19.8962 8.82141 19.8962C9.9181 19.8962 10.9802 19.6957 11.9822 19.3013C12.9472 18.9223 13.8247 18.3694 14.5658 17.6737C15.3138 16.9764 15.9003 16.1615 16.3089 15.2572C16.7331 14.3206 16.9507 13.3124 16.9485 12.2938C16.9485 11.2305 16.7176 10.1977 16.2581 9.22368V9.22368ZM13.4621 16.6169C12.2223 17.7761 10.5761 18.4123 8.82141 18.4123C7.0667 18.4123 5.4205 17.7761 4.18066 16.6169C2.94544 15.4599 2.26434 13.9259 2.26434 12.2938C2.26434 11.346 2.4906 10.4374 2.93621 9.59193C3.37027 8.7661 4.01674 8.02744 4.80174 7.45873C5.30238 7.09745 5.75646 6.68207 6.15471 6.22108C6.73192 5.5565 7.18445 4.81566 7.49845 4.02034C7.62725 3.69227 7.72084 3.35283 7.77782 3.00713C8.33424 3.49085 8.80063 4.07481 9.19082 4.75901C9.96197 6.12303 10.3175 7.33671 10.2483 8.36953C10.2317 8.61278 10.2738 8.85641 10.3714 9.0821C10.469 9.30778 10.6195 9.50966 10.8116 9.67255C10.9781 9.8145 11.1729 9.92381 11.3845 9.99413C11.5962 10.0645 11.8205 10.0944 12.0445 10.0822C12.4994 10.0604 12.9173 9.87083 13.222 9.55053C13.5291 9.22586 13.7946 8.89466 14.0163 8.55692C14.3395 8.94696 14.6096 9.37185 14.8244 9.82943C15.1915 10.6095 15.3785 11.4397 15.3785 12.2938C15.3785 13.9259 14.6974 15.462 13.4621 16.6169Z" fill="#BF512E"/>
</svg>
