<svg width="97" height="32" viewBox="0 0 97 32" fill="none" xmlns="http://www.w3.org/2000/svg">
<path d="M0 31H95.6892" stroke="#BF512E" stroke-width="2"/>
<path d="M12.48 14.144H17.4V21.248C16.408 21.936 15.256 22.464 13.944 22.832C12.632 23.2 11.344 23.384 10.08 23.384C8.288 23.384 6.68 23.016 5.256 22.28C3.832 21.528 2.712 20.488 1.896 19.16C1.096 17.816 0.696 16.296 0.696 14.6C0.696 12.904 1.096 11.392 1.896 10.064C2.712 8.72 3.84 7.68 5.28 6.944C6.736 6.192 8.376 5.816 10.2 5.816C11.848 5.816 13.32 6.096 14.616 6.656C15.928 7.2 17.016 8 17.88 9.056L14.256 12.248C13.2 11.016 11.944 10.4 10.488 10.4C9.24 10.4 8.248 10.776 7.512 11.528C6.776 12.28 6.408 13.304 6.408 14.6C6.408 15.864 6.768 16.88 7.488 17.648C8.224 18.416 9.2 18.8 10.416 18.8C11.136 18.8 11.824 18.664 12.48 18.392V14.144ZM31.2613 20.072H24.8773L23.7493 23H17.9893L25.3333 6.2H30.9013L38.2453 23H32.3893L31.2613 20.072ZM29.7013 15.992L28.0693 11.768L26.4373 15.992H29.7013ZM54.1493 23L54.1013 15.344L50.4532 21.488H47.9573L44.3093 15.608V23H39.1493V6.2H43.8053L49.2773 15.152L54.6053 6.2H59.2613L59.3093 23H54.1493ZM76.0157 18.728V23H62.0477V6.2H75.7037V10.472H67.6157V12.44H74.7197V16.52H67.6157V18.728H76.0157ZM85.3961 18.776H83.8601V23H78.1961V6.2H86.2841C87.8361 6.2 89.1881 6.456 90.3401 6.968C91.4921 7.48 92.3801 8.216 93.0041 9.176C93.6281 10.136 93.9401 11.256 93.9401 12.536C93.9401 13.736 93.6681 14.784 93.1241 15.68C92.5801 16.576 91.7961 17.288 90.7721 17.816L94.3001 23H88.2521L85.3961 18.776ZM88.2281 12.536C88.2281 11.912 88.0361 11.432 87.6521 11.096C87.2681 10.744 86.6921 10.568 85.9241 10.568H83.8601V14.504H85.9241C86.6921 14.504 87.2681 14.336 87.6521 14C88.0361 13.648 88.2281 13.16 88.2281 12.536Z" fill="white"/>
</svg>
